<?xml version="1.0" encoding="UTF-8" standalone="no"?>
<svg
   version="1.1"
   viewBox="0 0 100 100"
   xml:space="preserve"
   id="svg9"
   sodipodi:docname="telepush.svg"
   width="100"
   height="100"
   inkscape:export-filename="/home/ferdinand/Downloads/3057660_media_message_network_social_icon.png"
   inkscape:export-xdpi="120.15"
   inkscape:export-ydpi="120.15"
   inkscape:version="1.1 (c68e22c387, 2021-05-23)"
   xmlns:inkscape="http://www.inkscape.org/namespaces/inkscape"
   xmlns:sodipodi="http://sodipodi.sourceforge.net/DTD/sodipodi-0.dtd"
   xmlns="http://www.w3.org/2000/svg"
   xmlns:svg="http://www.w3.org/2000/svg"><defs
     id="defs13"><inkscape:path-effect
       effect="fill_between_many"
       method="originald"
       linkedpaths="#g8652,0,1|"
       id="path-effect10134" /></defs><sodipodi:namedview
     id="namedview11"
     pagecolor="#505050"
     bordercolor="#eeeeee"
     borderopacity="1"
     inkscape:pageshadow="0"
     inkscape:pageopacity="0"
     inkscape:pagecheckerboard="0"
     showgrid="false"
     fit-margin-top="0"
     fit-margin-left="0"
     fit-margin-right="0"
     fit-margin-bottom="0"
     inkscape:zoom="6.8203125"
     inkscape:cx="24.998855"
     inkscape:cy="27.418098"
     inkscape:window-width="3440"
     inkscape:window-height="1374"
     inkscape:window-x="0"
     inkscape:window-y="0"
     inkscape:window-maximized="1"
     inkscape:current-layer="g8652" /><style
     type="text/css"
     id="style2">
	.st0{fill:#0072FF;}
</style><g
     id="GUIDES_64"
     transform="translate(-20.147414,-25.670257)" /><g
     id="Layer_3"
     transform="translate(-20.147414,-25.670257)" /><g
     inkscape:groupmode="layer"
     id="layer1"
     inkscape:label="Layer 1"
     transform="translate(-20.147414,-25.670257)"><path
       inkscape:original-d="M 0,0"
       inkscape:path-effect="#path-effect10134"
       d="M 0,0"
       id="path10136" /><g
       id="g8652"
       transform="translate(3.3490845,13.499998)"><g
         id="Layer_2"
         transform="translate(32.058935,32.380616)"
         style="stroke:#454545;stroke-opacity:1"><path
           class="st0"
           d="m 56.4,8.2 -51.2,20 c -1.7,0.6 -1.6,3 0.1,3.5 l 9.7,2.9 c 2.1,0.6 3.8,2.2 4.4,4.3 L 23.2,51 c 0.5,1.6 2.5,2.1 3.7,0.9 l 5.2,-5.3 c 0.9,-0.9 2.2,-1 3.2,-0.3 l 11.5,8.4 c 1.6,1.2 3.9,0.3 4.3,-1.7 L 59.8,11.2 C 60.4,9.1 58.4,7.4 56.4,8.2 Z M 50,17.4 29.4,35.6 c -1.1,1 -1.9,2.4 -2,3.9 -0.2,1.5 -2.3,1.7 -2.8,0.3 l -0.9,-3 C 23,34.6 23.9,32.3 25.8,31.1 L 49.3,16.5 c 0.6,-0.4 1.2,0.4 0.7,0.9 z"
           id="path6"
           style="fill:#0593ff;fill-opacity:1;stroke:#454545;stroke-opacity:1" /></g><path
         d="M 33.647415,97.170257 H 30.98074 c -2.94553,0 -5.333351,-3.477834 -5.333351,-7.7735 0,-6.031667 0,-14.220888 -2.7e-5,-19.448723 0,-3.888888 -4.000013,-7.777777 -4.000013,-7.777777 0,0 4.00004,-3.88889 4.00004,-7.777778 0,-4.561666 0,-13.136393 0,-19.447788 0,-4.29555 2.387821,-7.774434 5.333351,-7.774434 h 2.666675"
         stroke="currentColor"
         stroke-linecap="round"
         stroke-linejoin="round"
         id="path847"
         style="fill:none;stroke:#454545;stroke-width:3;stroke-miterlimit:4;stroke-dasharray:none;stroke-opacity:1" /><path
         d="m 99.949248,97.170261 h 2.666682 c 2.94562,0 5.33336,-3.477838 5.33336,-7.7735 0,-6.031666 0,-14.220892 0,-19.448725 0,-3.88889 4.00002,-7.777778 4.00002,-7.777778 0,0 -4.00002,-3.888888 -4.00002,-7.777778 0,-4.561667 0,-13.136394 0,-19.447789 0,-4.29555 -2.38774,-7.774434 -5.33336,-7.774434 h -2.666682"
         stroke="currentColor"
         stroke-linecap="round"
         stroke-linejoin="round"
         id="path849"
         style="fill:none;stroke:#454545;stroke-width:3;stroke-miterlimit:4;stroke-dasharray:none;stroke-opacity:1" /></g></g></svg>
